<?xml version="1.0" encoding="utf-8"?>
<!-- Generator: Adobe Illustrator 23.1.0, SVG Export Plug-In . SVG Version: 6.00 Build 0)  -->
<svg version="1.1" id="LOGO_1" xmlns="http://www.w3.org/2000/svg" xmlns:xlink="http://www.w3.org/1999/xlink" x="0px" y="0px"
	 viewBox="0 0 468.4 91.7" style="enable-background:new 0 0 468.4 91.7;" xml:space="preserve">
<style type="text/css">
	.st0{fill:none;}
</style>
<g>
	<g>
		<g>
			<path d="M17.5,16.3c1.3-1.2,2.6-2.3,3.9-3.2c-0.2-0.2-0.3-0.5-0.4-0.8c-1.4,1-2.8,2.2-4.1,3.4C8.3,23.8,4.4,34.9,5.2,45.6
				c0.2-0.1,0.4-0.1,0.6-0.1c0.1,0,0.2,0,0.3,0C5.3,35.1,9.2,24.2,17.5,16.3z"/>
			<path d="M30,75.8c0,0.3-0.1,0.6-0.3,0.9c9.2,2.9,19.4,1.9,28.3-2.8c-0.1-0.3-0.2-0.6-0.2-0.9C49.2,77.7,39.1,78.6,30,75.8z"/>
			<path d="M58.3,8.5c0,0.3-0.1,0.6-0.3,0.9c2.9,1.4,5.7,3.2,8.2,5.5l0.7-0.6C64.3,11.8,61.4,9.9,58.3,8.5z"/>
			<path d="M6.8,50.4c-0.1,0-0.1,0-0.2,0c-0.2,0.1-0.4,0.1-0.7,0.2c1.3,6.2,4.3,12,8.9,16.9c3,3.2,6.6,5.7,10.3,7.5v-0.1
				c0-0.3,0.1-0.5,0.2-0.8c-3.6-1.7-7-4.1-9.9-7.2C11,62.1,8.1,56.4,6.8,50.4z"/>
			<path d="M53.6,7.6c0-0.3,0.1-0.6,0.3-0.9c-9.3-2.9-19.8-2-28.7,2.9c0.2,0.2,0.3,0.5,0.4,0.8C34.3,5.7,44.5,4.7,53.6,7.6z"/>
		</g>
		<g>
			<path d="M55.4,2.9c0.1-0.3,0.3-0.6,0.4-1c-10.9-3.4-23-2.3-33.4,3.5c0.2,0.2,0.4,0.5,0.5,0.9C33.1,0.7,44.8-0.4,55.4,2.9z"/>
			<path d="M14.1,12.7c1.5-1.5,3.2-2.8,4.8-4c-0.2-0.2-0.4-0.6-0.5-0.9c-1.8,1.2-3.5,2.6-5.1,4.1C3.6,21.4-0.9,34.3,0.2,46.7
				c0.2-0.1,0.5-0.2,0.8-0.2c0.1,0,0.1,0,0.2,0C0.1,34.5,4.5,21.9,14.1,12.7z"/>
			<path d="M1.9,51.5c-0.1,0-0.1,0-0.2,0.1C1.5,51.8,1.3,51.9,1,52c1.5,7,4.8,13.5,10.1,19c3.6,3.7,7.7,6.6,12.1,8.7
				c0-0.2,0.1-0.3,0.2-0.5c0-0.2,0.1-0.3,0.2-0.5c-4.3-2-8.3-4.8-11.7-8.4C6.7,64.9,3.4,58.4,1.9,51.5z"/>
			<path d="M60.3,77.2c-10,5.5-21.7,6.6-32.2,3.2c-0.1,0.3-0.2,0.7-0.4,0.9l0,0c10.7,3.4,22.8,2.3,33.1-3.3
				c-0.1-0.1-0.1-0.2-0.2-0.3C60.6,77.6,60.5,77.4,60.3,77.2z"/>
			<path d="M60.7,3.9C60.6,3.9,60.6,3.9,60.7,3.9c-0.2,0.3-0.3,0.7-0.4,1c3.5,1.6,6.7,3.8,9.6,6.5l0.8-0.7
				C67.6,7.8,64.2,5.6,60.7,3.9z"/>
		</g>
	</g>
</g>
<g>
	<g id="APTUELT">
		<g id="APTUELT_1_">
			<path d="M106.9,73.1v-1.7c5.9-0.5,6.6-1.1,5.4-3.4c-1.2-2.4-3-5.4-4.9-9.3H87.7c-1.5,2.8-2.8,5.1-4.1,7.6c-2,4-0.7,4.5,6.7,5.1
				v1.7h-21v-1.7c5.7-0.5,7.2-0.9,10.3-6.4l18.8-32.1l2.9-0.4c5.7,10.5,12,22,17.7,32.6c2.9,5.3,3.7,5.8,10.2,6.3v1.7H106.9z
				 M97.8,40.5c-2.9,5.3-6,10.8-8.7,15.7h17L97.8,40.5z"/>
			<path d="M155,33.4c6.4,0,11.6,0.8,15.3,2.6c3.5,1.8,6,4.6,6,8.7c0,8.9-11.3,12.5-20,12.5c-1,0-1.9-0.1-2.5-0.1l-6.3-1.1v9.5
				c0,5.1,0.6,5.3,9,5.9v1.7h-25.1v-1.7c7.8-0.6,8.2-0.9,8.2-6V41.1c0-5.4-1-5.6-8.2-6.1v-1.7H155V33.4z M147.6,53.9
				c1.1,0.4,3.5,0.8,6.6,0.8c6.1,0,13.6-2.1,13.6-9.8c0-6.7-6.5-9.4-14.2-9.4c-2.6,0-4.5,0.3-5.1,0.7c-0.7,0.4-1,1.2-1,2.8
				L147.6,53.9L147.6,53.9z"/>
			<path d="M231.7,43c-0.8-2-1.9-4-2.9-5.1c-1.5-1.7-2.4-2.1-7.4-2.1h-9.1v29.8c0,4.8,0.7,5.4,9.4,5.8v1.7h-26.4v-1.7
				c8.4-0.4,9.2-1,9.2-5.8V35.8h-8.3c-5,0-6.4,0.4-8,2.2c-1.1,1.2-1.8,2.7-3,5h-2.7c0.5-3.7,1.1-7.6,1.4-11h2.1
				c1.4,1.5,2.4,1.4,4.9,1.4h35.9c2.5,0,3.3-0.2,4.6-1.4h2.2c0,2.9,0.4,7.3,0.8,10.8L231.7,43z"/>
			<path d="M303.3,35.1c-5.7,0.2-7.8,1.2-8,4c-0.1,1.4-0.3,4-0.3,9.6v6.6c0,6.2-1.1,11-6.4,14.7c-4.3,3-10.4,3.9-16.7,3.9
				c-5.3,0-10.9-0.7-14.9-2.8c-5.4-2.8-8.1-7-8.1-14.2V41.4c0-5.5-0.7-5.9-8-6.3v-1.7h23.9v1.7c-7.3,0.3-8,0.8-8,6.3v15.3
				c0,8.9,6.3,13.8,17.2,13.8c12.9,0,17-5.4,17-15.5v-6.2c0-5.6-0.3-7.9-0.5-9.6c-0.3-2.8-2.4-3.8-9.1-4v-1.7h21.8v1.6H303.3z"/>
			<path d="M355.5,63.4c-0.5,1.6-3,7.9-3.9,9.7h-44.1v-1.7c8.4-0.4,9.1-1,9.1-6V41.3c0-5.4-1-5.7-7.8-6.2v-1.7h27.8
				c8.5,0,12.1-0.1,13.2-0.1c0.1,1.5,0.5,6.1,0.8,9.4l-2.7,0.3c-0.8-2.1-1.7-3.4-2.7-4.6c-1.5-2-3.5-2.4-9-2.4h-8.6
				c-2.8,0-3,0.2-3,2v13.5h10.1c6.8,0,7.3-0.9,8.4-5.1h2.8V59h-2.8c-1.2-4.4-1.9-5-8.4-5h-10v12c0,4.3,2,4.6,6.5,4.7h8.4
				c5.5,0,6.4-0.6,8.4-2.1c1.7-1.3,3.6-3.8,4.9-5.6L355.5,63.4z"/>
			<path d="M407.4,63c-0.5,1.9-3.3,8.3-4.2,10.1H361v-1.7c8.3-0.6,9-0.9,9-6.1V41.1c0-5.2-0.9-5.5-8.2-6v-1.7h24.3v1.7
				c-7.3,0.5-8.3,0.7-8.3,6V66c0,3.7,0.7,4.6,5.9,4.6c0.1,0,6.6,0.1,7.2,0.1c4.6,0,6-0.4,8.1-1.9c2.3-1.6,4.2-4,5.5-6.3L407.4,63z"
				/>
			<path d="M461.2,43c-0.8-2-1.9-4-2.9-5.1c-1.5-1.7-2.4-2.1-7.4-2.1h-9.1v29.8c0,4.8,0.7,5.4,9.3,5.8v1.7h-26.4v-1.7
				c8.4-0.4,9.2-1,9.2-5.8V35.8h-8.3c-5,0-6.4,0.4-8,2.2c-1.1,1.2-1.8,2.7-3,5H412c0.5-3.7,1.1-7.6,1.4-11h2.1
				c1.4,1.5,2.4,1.4,4.9,1.4h35.9c2.5,0,3.3-0.2,4.6-1.4h2.2c0,2.9,0.4,7.3,0.8,10.8L461.2,43z"/>
		</g>
	</g>
</g>
<polygon class="st0" points="87.4,325.2 89.2,325.2 89.2,325.2 "/>
</svg>
